<svg width="197" height="32" viewBox="0 0 197 32" fill="none" xmlns="http://www.w3.org/2000/svg">
<path d="M27.749 12.3087H31.1952C31.9864 12.2866 32.7709 12.4645 33.4798 12.8267C34.1241 13.1531 34.6623 13.6654 35.0286 14.3011C35.4107 14.9626 35.599 15.7236 35.5707 16.4926C35.5802 17.2595 35.3932 18.0154 35.0286 18.6842C34.652 19.3112 34.1165 19.8209 33.4798 20.1586C32.7709 20.5208 31.9864 20.6987 31.1952 20.6766H27.749V12.3087ZM31.1178 19.6804C31.7218 19.6997 32.321 19.5627 32.8602 19.2819C33.3421 19.0304 33.7448 18.6436 34.0219 18.1662C34.3023 17.6702 34.4494 17.1063 34.4478 16.5325C34.4545 15.958 34.3071 15.3927 34.0219 14.8988C33.7448 14.4214 33.3421 14.0346 32.8602 13.7831C32.321 13.5023 31.7218 13.3653 31.1178 13.3846H28.9107V19.6804H31.1178Z" fill="white"/>
<path d="M38.2038 19.8399C37.5843 19.2023 37.3132 18.2859 37.3132 17.0905V12.3088H38.4749V17.0506C38.4749 18.8437 39.2493 19.7602 40.7594 19.7602C41.0739 19.7784 41.3885 19.7275 41.6823 19.6106C41.9761 19.4938 42.2423 19.3139 42.4632 19.0828C42.8504 18.6445 43.044 17.9671 43.044 17.0506V12.3088H44.1669V17.0905C44.2265 18.0909 43.9073 19.0763 43.2763 19.8399C42.9354 20.169 42.5331 20.4234 42.0938 20.5878C41.6545 20.7522 41.1874 20.8231 40.7207 20.7962C40.2599 20.8232 39.7985 20.7522 39.3655 20.5877C38.9325 20.4232 38.537 20.1686 38.2038 19.8399Z" fill="white"/>
<path d="M48.0777 13.3449H45.2898V12.3088H52.0273V13.3449H49.2394V20.7165H48.0777V13.3449Z" fill="white"/>
<path d="M54.6217 20.2384C53.9724 19.8823 53.4352 19.3432 53.0728 18.6843C52.6953 18.0209 52.5074 17.2612 52.5307 16.4928C52.5262 15.7265 52.7129 14.9719 53.0728 14.3012C53.4572 13.66 53.9891 13.1263 54.6217 12.7471C55.3013 12.3764 56.0596 12.1847 56.8288 12.1893C57.4235 12.1877 58.0136 12.2957 58.5713 12.5081C59.0894 12.7323 59.5523 13.0726 59.9265 13.5042L59.1521 14.2613C58.8617 13.9381 58.5078 13.6821 58.114 13.5103C57.7201 13.3386 57.2952 13.255 56.8675 13.2652C56.297 13.2584 55.7353 13.4098 55.2412 13.7035C54.7571 13.9699 54.3547 14.3701 54.0796 14.859C53.8006 15.3556 53.6537 15.9191 53.6537 16.4928C53.6537 17.0664 53.8006 17.6299 54.0796 18.1265C54.3547 18.6154 54.7571 19.0156 55.2412 19.282C55.7391 19.5661 56.2983 19.7168 56.8675 19.7203C57.2952 19.7305 57.7201 19.6469 58.114 19.4752C58.5078 19.3034 58.8617 19.0474 59.1521 18.7242L59.9265 19.4813C59.5523 19.9129 59.0894 20.2532 58.5713 20.4774C58.0178 20.7053 57.4247 20.8138 56.8288 20.7962C56.0575 20.8202 55.2945 20.6273 54.6217 20.2384Z" fill="white"/>
<path d="M68.6001 12.3088V20.7165H67.4385V16.9709H62.7532V20.7165H61.5916V12.3088H62.7532V15.9349H67.4385V12.3088H68.6001Z" fill="white"/>
<path d="M76.7704 20.2384C76.1211 19.8823 75.5838 19.3432 75.2215 18.6843C74.844 18.0209 74.6561 17.2612 74.6794 16.4928C74.6749 15.7265 74.8616 14.9719 75.2215 14.3012C75.6058 13.66 76.1378 13.1263 76.7704 12.7471C77.45 12.3764 78.2083 12.1847 78.9775 12.1893C79.5721 12.1877 80.1623 12.2957 80.7199 12.5081C81.238 12.7323 81.701 13.0726 82.0752 13.5042L81.3008 14.2613C81.0104 13.9381 80.6565 13.6821 80.2626 13.5103C79.8687 13.3386 79.4439 13.255 79.0162 13.2652C78.4457 13.2584 77.8839 13.4098 77.3899 13.7035C76.9057 13.9699 76.5034 14.3701 76.2283 14.859C75.9493 15.3556 75.8023 15.9191 75.8023 16.4928C75.8023 17.0664 75.9493 17.6299 76.2283 18.1265C76.5034 18.6154 76.9057 19.0156 77.3899 19.282C77.8877 19.5661 78.447 19.7168 79.0162 19.7203C79.4439 19.7305 79.8687 19.6469 80.2626 19.4752C80.6565 19.3034 81.0104 19.0474 81.3008 18.7242L82.0752 19.4813C81.701 19.9129 81.238 20.2532 80.7199 20.4774C80.1665 20.7053 79.5734 20.8138 78.9775 20.7962C78.2062 20.8202 77.4431 20.6273 76.7704 20.2384Z" fill="white"/>
<path d="M85.0567 20.2383C84.4074 19.8822 83.8701 19.3432 83.5078 18.6842C83.1276 18.0202 82.927 17.2635 82.927 16.4927C82.927 15.7219 83.1276 14.9652 83.5078 14.3011C83.8921 13.6599 84.4241 13.1262 85.0567 12.7471C85.7379 12.3806 86.4951 12.1892 87.2638 12.1892C88.0325 12.1892 88.7897 12.3806 89.4709 12.7471C90.1202 13.1031 90.6574 13.6422 91.0198 14.3011C91.3973 14.9646 91.5852 15.7242 91.5619 16.4927C91.5664 17.2589 91.3797 18.0135 91.0198 18.6842C90.6355 19.3254 90.1035 19.8591 89.4709 20.2383C88.7913 20.609 88.033 20.8007 87.2638 20.7961C86.4925 20.8201 85.7294 20.6272 85.0567 20.2383ZM88.8901 19.3218C89.363 19.0368 89.7552 18.6293 90.0278 18.14C90.3003 17.6507 90.4437 17.0965 90.4437 16.5325C90.4437 15.9685 90.3003 15.4143 90.0278 14.925C89.7552 14.4357 89.363 14.0283 88.8901 13.7432C88.3961 13.4495 87.8343 13.2981 87.2638 13.3049C86.6939 13.3033 86.1335 13.4544 85.6375 13.7432C85.1643 14.011 84.7748 14.4118 84.5146 14.8988C84.3061 15.2651 84.1698 15.6701 84.1134 16.0906C84.057 16.5111 84.0816 16.9389 84.1859 17.3496C84.2901 17.7603 84.472 18.1459 84.7211 18.4843C84.9701 18.8227 85.2815 19.1073 85.6375 19.3218C86.1353 19.6059 86.6946 19.7566 87.2638 19.7601C87.8337 19.7617 88.3941 19.6106 88.8901 19.3218Z" fill="white"/>
<path d="M93.3818 12.3087H96.828C97.6193 12.2866 98.4037 12.4645 99.1126 12.8267C99.757 13.1531 100.295 13.6654 100.661 14.3011C101.044 14.9626 101.232 15.7236 101.204 16.4926C101.213 17.2595 101.026 18.0154 100.661 18.6842C100.285 19.3112 99.7494 19.8209 99.1126 20.1586C98.4037 20.5208 97.6193 20.6987 96.828 20.6766H93.3818V12.3087ZM96.7506 19.6804C97.3547 19.6997 97.9538 19.5627 98.4931 19.2819C98.9749 19.0304 99.3777 18.6436 99.6547 18.1662C99.9352 17.6702 100.082 17.1063 100.081 16.5325C100.087 15.958 99.94 15.3927 99.6547 14.8988C99.3777 14.4214 98.9749 14.0346 98.4931 13.7831C97.9538 13.5023 97.3547 13.3653 96.7506 13.3846H94.5435V19.6804H96.7506Z" fill="white"/>
<path d="M104.146 12.3088H102.985V20.7165H104.146V12.3088Z" fill="white"/>
<path d="M113.633 12.3088V20.7165H112.665L107.786 14.4606V20.7165H106.625V12.3088H107.593L112.471 18.5648V12.3088H113.633Z" fill="white"/>
<path d="M121.726 16.4529H122.849V19.7203C122.434 20.0701 121.962 20.3401 121.455 20.5173C120.92 20.7098 120.356 20.8042 119.79 20.7962C119.02 20.8008 118.262 20.6091 117.583 20.2384C116.933 19.8823 116.396 19.3433 116.034 18.6843C115.653 18.0203 115.453 17.2635 115.453 16.4928C115.453 15.722 115.653 14.9652 116.034 14.3012C116.418 13.66 116.95 13.1263 117.583 12.7471C118.274 12.3717 119.046 12.18 119.828 12.1893C120.436 12.1878 121.038 12.2957 121.61 12.5081C122.118 12.7324 122.578 13.0573 122.965 13.4644L122.229 14.2215C121.916 13.9097 121.546 13.6648 121.141 13.5006C120.736 13.3365 120.303 13.2565 119.867 13.2652C119.288 13.2503 118.715 13.3874 118.202 13.6636C117.718 13.93 117.316 14.3302 117.04 14.8192C116.755 15.3276 116.608 15.9057 116.615 16.4928C116.613 17.0666 116.76 17.6305 117.04 18.1265C117.316 18.6154 117.718 19.0156 118.202 19.282C118.753 19.5888 119.373 19.7395 119.999 19.7185C120.625 19.6975 121.234 19.5056 121.764 19.1625V16.4529H121.726Z" fill="white"/>
<path d="M131.329 20.1986C130.679 19.8425 130.142 19.3035 129.78 18.6445C129.402 17.9811 129.214 17.2214 129.238 16.453C129.233 15.6867 129.42 14.9321 129.78 14.2614C130.164 13.6202 130.696 13.0865 131.329 12.7073C132.008 12.3366 132.767 12.1449 133.536 12.1495C134.13 12.1479 134.721 12.2559 135.278 12.4683C135.796 12.6925 136.259 13.0329 136.634 13.4644L135.859 14.2215C135.569 13.8983 135.215 13.6423 134.821 13.4705C134.427 13.2988 134.002 13.2152 133.575 13.2254C133.004 13.2186 132.442 13.37 131.948 13.6637C131.464 13.9301 131.062 14.3303 130.787 14.8192C130.508 15.3158 130.361 15.8793 130.361 16.453C130.361 17.0266 130.508 17.5901 130.787 18.0867C131.062 18.5756 131.464 18.9758 131.948 19.2422C132.446 19.5263 133.005 19.677 133.575 19.6806C134.002 19.6907 134.427 19.6071 134.821 19.4354C135.215 19.2636 135.569 19.0076 135.859 18.6844L136.634 19.4415C136.259 19.8731 135.796 20.2134 135.278 20.4376C134.725 20.6656 134.132 20.7741 133.536 20.7564C132.765 20.7804 132.001 20.5875 131.329 20.1986Z" fill="white"/>
<path d="M139.576 20.1985C138.927 19.8424 138.39 19.3034 138.027 18.6445C137.647 17.9804 137.447 17.2237 137.447 16.4529C137.447 15.6821 137.647 14.9254 138.027 14.2613C138.412 13.6202 138.944 13.0864 139.576 12.7073C140.257 12.3408 141.015 12.1494 141.783 12.1494C142.552 12.1494 143.309 12.3408 143.99 12.7073C144.64 13.0633 145.177 13.6024 145.539 14.2613C145.917 14.9248 146.105 15.6844 146.081 16.4529C146.086 17.2191 145.899 17.9737 145.539 18.6445C145.155 19.2856 144.623 19.8194 143.99 20.1985C143.311 20.5692 142.553 20.7609 141.783 20.7563C141.013 20.7754 140.251 20.5829 139.576 20.1985ZM143.448 19.282C143.921 18.997 144.313 18.5895 144.586 18.1002C144.859 17.6109 145.002 17.0567 145.002 16.4927C145.002 15.9287 144.859 15.3745 144.586 14.8852C144.313 14.3959 143.921 13.9885 143.448 13.7034C142.954 13.4097 142.393 13.2583 141.822 13.2651C141.252 13.2635 140.692 13.4146 140.196 13.7034C139.723 13.9712 139.333 14.372 139.073 14.859C138.864 15.2253 138.728 15.6303 138.672 16.0508C138.615 16.4713 138.64 16.8991 138.744 17.3098C138.848 17.7205 139.03 18.1061 139.279 18.4445C139.528 18.7829 139.84 19.0675 140.196 19.282C140.692 19.5694 141.252 19.7203 141.822 19.7203C142.392 19.7203 142.952 19.5694 143.448 19.282Z" fill="white"/>
<path d="M155.491 20.6767V14.5403L152.548 19.6407H152.006L149.063 14.5802V20.6767H147.94V12.269H148.908L152.315 18.1664L155.684 12.269H156.652V20.6767H155.491Z" fill="white"/>
<path d="M164.745 13.0658C165.047 13.3275 165.285 13.6586 165.44 14.0324C165.594 14.4061 165.662 14.8121 165.636 15.2175C165.653 15.6218 165.582 16.025 165.428 16.3973C165.273 16.7697 165.04 17.1018 164.745 17.3692C164.036 17.9266 163.158 18.2088 162.267 18.1662H160.253V20.7164H159.092V12.2688H162.267C163.158 12.2263 164.036 12.5085 164.745 13.0658ZM163.893 16.6122C164.089 16.442 164.243 16.2274 164.344 15.9853C164.444 15.7433 164.489 15.4804 164.474 15.2175C164.489 14.9546 164.444 14.6918 164.344 14.4497C164.243 14.2076 164.089 13.993 163.893 13.8229C163.393 13.4719 162.793 13.3035 162.19 13.3447H160.215V17.1302H162.19C162.795 17.1406 163.39 16.9598 163.893 16.6122Z" fill="white"/>
<path d="M172.141 18.5648H167.804L166.913 20.6767H165.713L169.392 12.269H170.553L174.271 20.6767H173.031L172.141 18.5648ZM171.754 17.6085L170.011 13.5043L168.269 17.6085H171.754Z" fill="white"/>
<path d="M182.48 12.269V20.6767H181.511L176.633 14.4208V20.6767H175.471V12.269H176.439L181.318 18.525V12.269H182.48Z" fill="white"/>
<path d="M188.055 17.7679V20.6767H186.894V17.7679L183.68 12.269H184.919L187.513 16.692L190.146 12.269H191.308L188.055 17.7679Z" fill="white"/>
<path d="M197 20.6765H191.192V21.4336H197V20.6765Z" fill="white"/>
<path d="M15.5721 19.9109L10.5553 11.3868C10.507 11.31 10.4402 11.2474 10.3613 11.2053C10.2823 11.1632 10.1941 11.143 10.1053 11.1467L0.0622287 11.8093C0.0289334 11.8454 0.00773781 11.8915 0.00174557 11.9408C-0.00424666 11.9902 0.00527922 12.0403 0.0289284 12.0837L5.04462 20.6233C5.0928 20.7001 5.15966 20.7627 5.23857 20.8048C5.31748 20.8469 5.40571 20.8671 5.49452 20.8633L15.5221 20.2025C15.5636 20.1686 15.5916 20.1202 15.6009 20.0665C15.6101 20.0127 15.5998 19.9574 15.5721 19.9109Z" fill="url(#paint0_linear_754_2567)"/>
<g opacity="0.4">
<path d="M10.1055 11.1467L8.45208 11.2558L5.2561 20.8125C5.33058 20.8486 5.41228 20.866 5.49455 20.8634L7.17087 20.7529L10.3538 11.2028C10.2759 11.1658 10.1912 11.1467 10.1055 11.1467Z" fill="#1A0E41"/>
</g>
<path d="M12.1055 0.324387C12.1211 0.271502 12.1193 0.214822 12.1004 0.1631C12.0815 0.111377 12.0466 0.0674899 12.0011 0.0382148C11.9555 0.00893968 11.9019 -0.0040944 11.8484 0.00112544C11.795 0.00634529 11.7447 0.0295287 11.7053 0.0670953C11.7053 0.0670953 0.142448 11.7255 0.0622559 11.8093L8.4472 11.2561L12.1055 0.324387Z" fill="url(#paint1_linear_754_2567)"/>
<path d="M7.16581 20.753L7.16372 20.7593L3.50556 31.6765C3.48785 31.7277 3.4874 31.7836 3.5043 31.8351C3.52121 31.8867 3.55447 31.9308 3.59874 31.9606C3.643 31.9903 3.6957 32.0038 3.74834 31.9989C3.80097 31.994 3.85049 31.9711 3.8889 31.9337C3.8889 31.9337 15.4008 20.3248 15.5222 20.2024L7.16581 20.753Z" fill="url(#paint2_linear_754_2567)"/>
<defs>
<linearGradient id="paint0_linear_754_2567" x1="-0.00015131" y1="16.0052" x2="15.6048" y2="16.0052" gradientUnits="userSpaceOnUse">
<stop stop-color="#721DF8"/>
<stop offset="1" stop-color="#E25898"/>
</linearGradient>
<linearGradient id="paint1_linear_754_2567" x1="0.0622559" y1="5.9051" x2="12.1198" y2="5.9051" gradientUnits="userSpaceOnUse">
<stop stop-color="#721DF8"/>
<stop offset="1" stop-color="#47CBF8"/>
</linearGradient>
<linearGradient id="paint2_linear_754_2567" x1="15.5222" y1="26.1012" x2="3.49058" y2="26.1012" gradientUnits="userSpaceOnUse">
<stop stop-color="#E15897"/>
<stop offset="0.5" stop-color="#E17156"/>
<stop offset="1" stop-color="#F5A949"/>
</linearGradient>
</defs>
</svg>
